<mxfile host="app.diagrams.net" agent="Mozilla/5.0 (Windows NT 10.0; Win64; x64; rv:130.0) Gecko/20100101 Firefox/130.0" version="24.7.17">
  <diagram name="Page-1" id="QHZ02D-Xwt9p3TBRDRYw">
    <mxGraphModel dx="1434" dy="774" grid="0" gridSize="10" guides="1" tooltips="1" connect="1" arrows="1" fold="1" page="1" pageScale="1" pageWidth="1654" pageHeight="2336" math="0" shadow="0">
      <root>
        <mxCell id="0" />
        <mxCell id="1" parent="0" />
        <mxCell id="wkBuQ8UOcpV6wldaHhzW-1" value="Customer" style="rounded=0;whiteSpace=wrap;html=1;" parent="1" vertex="1">
          <mxGeometry x="800" y="720" width="120" height="60" as="geometry" />
        </mxCell>
        <mxCell id="wkBuQ8UOcpV6wldaHhzW-5" value="Clinic" style="rounded=0;whiteSpace=wrap;html=1;" parent="1" vertex="1">
          <mxGeometry x="800" y="340" width="120" height="60" as="geometry" />
        </mxCell>
        <mxCell id="wkBuQ8UOcpV6wldaHhzW-6" value="Pet" style="rounded=0;whiteSpace=wrap;html=1;" parent="1" vertex="1">
          <mxGeometry x="340" y="720" width="120" height="60" as="geometry" />
        </mxCell>
        <mxCell id="wkBuQ8UOcpV6wldaHhzW-7" value="Employee" style="rounded=0;whiteSpace=wrap;html=1;" parent="1" vertex="1">
          <mxGeometry x="340" y="340" width="120" height="60" as="geometry" />
        </mxCell>
        <mxCell id="rdd54FIDhYAE33KvgznH-1" value="Service" style="rounded=0;whiteSpace=wrap;html=1;" parent="1" vertex="1">
          <mxGeometry x="1260" y="340" width="120" height="60" as="geometry" />
        </mxCell>
        <mxCell id="-0kGIgU5v4uwBQH66-7V-128" value="N" style="edgeStyle=orthogonalEdgeStyle;rounded=0;orthogonalLoop=1;jettySize=auto;html=1;exitX=1;exitY=0.5;exitDx=0;exitDy=0;entryX=0.5;entryY=1;entryDx=0;entryDy=0;endArrow=none;endFill=0;" parent="1" source="rdd54FIDhYAE33KvgznH-5" target="rdd54FIDhYAE33KvgznH-1" edge="1">
          <mxGeometry x="-0.9798" relative="1" as="geometry">
            <mxPoint as="offset" />
          </mxGeometry>
        </mxCell>
        <mxCell id="rdd54FIDhYAE33KvgznH-5" value="Treatment" style="shape=rhombus;perimeter=rhombusPerimeter;whiteSpace=wrap;html=1;align=center;" parent="1" vertex="1">
          <mxGeometry x="310" y="520" width="180" height="80" as="geometry" />
        </mxCell>
        <mxCell id="rdd54FIDhYAE33KvgznH-10" value="ClinicCustomers" style="shape=rhombus;perimeter=rhombusPerimeter;whiteSpace=wrap;html=1;align=center;" parent="1" vertex="1">
          <mxGeometry x="800" y="590" width="120" height="80" as="geometry" />
        </mxCell>
        <mxCell id="rdd54FIDhYAE33KvgznH-12" value="N" style="endArrow=none;html=1;rounded=0;entryX=0.5;entryY=1;entryDx=0;entryDy=0;exitX=0.5;exitY=0;exitDx=0;exitDy=0;" parent="1" source="wkBuQ8UOcpV6wldaHhzW-1" target="rdd54FIDhYAE33KvgznH-10" edge="1">
          <mxGeometry x="0.6" width="50" height="50" relative="1" as="geometry">
            <mxPoint x="860" y="700" as="sourcePoint" />
            <mxPoint x="990" y="560" as="targetPoint" />
            <Array as="points" />
            <mxPoint as="offset" />
          </mxGeometry>
        </mxCell>
        <mxCell id="rdd54FIDhYAE33KvgznH-13" value="ClinicEmployees" style="shape=rhombus;perimeter=rhombusPerimeter;whiteSpace=wrap;html=1;align=center;" parent="1" vertex="1">
          <mxGeometry x="570" y="330" width="120" height="80" as="geometry" />
        </mxCell>
        <mxCell id="rdd54FIDhYAE33KvgznH-14" value="N" style="endArrow=none;html=1;rounded=0;entryX=1;entryY=0.5;entryDx=0;entryDy=0;exitX=0;exitY=0.5;exitDx=0;exitDy=0;" parent="1" source="rdd54FIDhYAE33KvgznH-13" target="wkBuQ8UOcpV6wldaHhzW-7" edge="1">
          <mxGeometry x="-0.8462" width="50" height="50" relative="1" as="geometry">
            <mxPoint x="560" y="370" as="sourcePoint" />
            <mxPoint x="630" y="410" as="targetPoint" />
            <Array as="points">
              <mxPoint x="530" y="370" />
            </Array>
            <mxPoint as="offset" />
          </mxGeometry>
        </mxCell>
        <mxCell id="rdd54FIDhYAE33KvgznH-15" value="1" style="endArrow=none;html=1;rounded=0;exitX=0;exitY=0.5;exitDx=0;exitDy=0;entryX=1;entryY=0.5;entryDx=0;entryDy=0;" parent="1" source="wkBuQ8UOcpV6wldaHhzW-5" target="rdd54FIDhYAE33KvgznH-13" edge="1">
          <mxGeometry x="0.8462" width="50" height="50" relative="1" as="geometry">
            <mxPoint x="630" y="730" as="sourcePoint" />
            <mxPoint x="670" y="450" as="targetPoint" />
            <Array as="points">
              <mxPoint x="730" y="370" />
            </Array>
            <mxPoint as="offset" />
          </mxGeometry>
        </mxCell>
        <mxCell id="rdd54FIDhYAE33KvgznH-16" value="ClinicServices" style="shape=rhombus;perimeter=rhombusPerimeter;whiteSpace=wrap;html=1;align=center;" parent="1" vertex="1">
          <mxGeometry x="1035" y="330" width="110" height="80" as="geometry" />
        </mxCell>
        <mxCell id="rdd54FIDhYAE33KvgznH-17" value="N" style="endArrow=none;html=1;rounded=0;exitX=0;exitY=0.5;exitDx=0;exitDy=0;entryX=1;entryY=0.5;entryDx=0;entryDy=0;" parent="1" source="rdd54FIDhYAE33KvgznH-16" target="wkBuQ8UOcpV6wldaHhzW-5" edge="1">
          <mxGeometry x="-0.8462" width="50" height="50" relative="1" as="geometry">
            <mxPoint x="1020" y="370" as="sourcePoint" />
            <mxPoint x="950" y="370" as="targetPoint" />
            <Array as="points">
              <mxPoint x="990" y="370" />
            </Array>
            <mxPoint as="offset" />
          </mxGeometry>
        </mxCell>
        <mxCell id="rdd54FIDhYAE33KvgznH-18" value="M" style="endArrow=none;html=1;rounded=0;entryX=1;entryY=0.5;entryDx=0;entryDy=0;exitX=0;exitY=0.5;exitDx=0;exitDy=0;" parent="1" source="rdd54FIDhYAE33KvgznH-1" target="rdd54FIDhYAE33KvgznH-16" edge="1">
          <mxGeometry x="0.8462" width="50" height="50" relative="1" as="geometry">
            <mxPoint x="1240" y="370" as="sourcePoint" />
            <mxPoint x="1130" y="450" as="targetPoint" />
            <Array as="points">
              <mxPoint x="1190" y="370" />
            </Array>
            <mxPoint as="offset" />
          </mxGeometry>
        </mxCell>
        <mxCell id="rdd54FIDhYAE33KvgznH-19" value="CustomerPets" style="shape=rhombus;perimeter=rhombusPerimeter;whiteSpace=wrap;html=1;align=center;" parent="1" vertex="1">
          <mxGeometry x="575" y="710" width="110" height="80" as="geometry" />
        </mxCell>
        <mxCell id="rdd54FIDhYAE33KvgznH-20" value="N" style="endArrow=none;html=1;rounded=0;exitX=0;exitY=0.5;exitDx=0;exitDy=0;entryX=1;entryY=0.5;entryDx=0;entryDy=0;" parent="1" source="rdd54FIDhYAE33KvgznH-19" target="wkBuQ8UOcpV6wldaHhzW-6" edge="1">
          <mxGeometry x="-0.8462" width="50" height="50" relative="1" as="geometry">
            <mxPoint x="560" y="750" as="sourcePoint" />
            <mxPoint x="490" y="750" as="targetPoint" />
            <Array as="points">
              <mxPoint x="530" y="750" />
            </Array>
            <mxPoint as="offset" />
          </mxGeometry>
        </mxCell>
        <mxCell id="rdd54FIDhYAE33KvgznH-21" value="1" style="endArrow=none;html=1;rounded=0;entryX=1;entryY=0.5;entryDx=0;entryDy=0;exitX=0;exitY=0.5;exitDx=0;exitDy=0;" parent="1" source="wkBuQ8UOcpV6wldaHhzW-1" target="rdd54FIDhYAE33KvgznH-19" edge="1">
          <mxGeometry x="0.8462" width="50" height="50" relative="1" as="geometry">
            <mxPoint x="780" y="760" as="sourcePoint" />
            <mxPoint x="670" y="830" as="targetPoint" />
            <Array as="points">
              <mxPoint x="730" y="750" />
            </Array>
            <mxPoint as="offset" />
          </mxGeometry>
        </mxCell>
        <mxCell id="-0kGIgU5v4uwBQH66-7V-2" value="Name" style="ellipse;whiteSpace=wrap;html=1;" parent="1" vertex="1">
          <mxGeometry x="772" y="830" width="44" height="49" as="geometry" />
        </mxCell>
        <mxCell id="-0kGIgU5v4uwBQH66-7V-4" value="FirstName" style="ellipse;whiteSpace=wrap;html=1;" parent="1" vertex="1">
          <mxGeometry x="632" y="888" width="70" height="50" as="geometry" />
        </mxCell>
        <mxCell id="-0kGIgU5v4uwBQH66-7V-5" value="LastName" style="ellipse;whiteSpace=wrap;html=1;" parent="1" vertex="1">
          <mxGeometry x="692" y="928" width="70" height="50" as="geometry" />
        </mxCell>
        <mxCell id="-0kGIgU5v4uwBQH66-7V-8" value="" style="endArrow=none;html=1;rounded=0;exitX=0.971;exitY=0.273;exitDx=0;exitDy=0;entryX=0.068;entryY=0.776;entryDx=0;entryDy=0;entryPerimeter=0;exitPerimeter=0;" parent="1" source="-0kGIgU5v4uwBQH66-7V-4" target="-0kGIgU5v4uwBQH66-7V-2" edge="1">
          <mxGeometry width="50" height="50" relative="1" as="geometry">
            <mxPoint x="812" y="968" as="sourcePoint" />
            <mxPoint x="862" y="918" as="targetPoint" />
          </mxGeometry>
        </mxCell>
        <mxCell id="-0kGIgU5v4uwBQH66-7V-9" value="" style="endArrow=none;html=1;rounded=0;exitX=0.695;exitY=0.053;exitDx=0;exitDy=0;entryX=0.295;entryY=0.973;entryDx=0;entryDy=0;entryPerimeter=0;exitPerimeter=0;" parent="1" source="-0kGIgU5v4uwBQH66-7V-5" target="-0kGIgU5v4uwBQH66-7V-2" edge="1">
          <mxGeometry width="50" height="50" relative="1" as="geometry">
            <mxPoint x="752" y="923" as="sourcePoint" />
            <mxPoint x="816" y="901" as="targetPoint" />
          </mxGeometry>
        </mxCell>
        <mxCell id="-0kGIgU5v4uwBQH66-7V-10" value="" style="endArrow=none;html=1;rounded=0;exitX=0.736;exitY=0.049;exitDx=0;exitDy=0;entryX=0.125;entryY=1.019;entryDx=0;entryDy=0;entryPerimeter=0;exitPerimeter=0;" parent="1" source="-0kGIgU5v4uwBQH66-7V-2" target="wkBuQ8UOcpV6wldaHhzW-1" edge="1">
          <mxGeometry width="50" height="50" relative="1" as="geometry">
            <mxPoint x="740" y="925" as="sourcePoint" />
            <mxPoint x="804" y="903" as="targetPoint" />
          </mxGeometry>
        </mxCell>
        <mxCell id="-0kGIgU5v4uwBQH66-7V-13" value="Street" style="ellipse;whiteSpace=wrap;html=1;" parent="1" vertex="1">
          <mxGeometry x="1476" y="733.5" width="40" height="40" as="geometry" />
        </mxCell>
        <mxCell id="-0kGIgU5v4uwBQH66-7V-15" value="City" style="ellipse;whiteSpace=wrap;html=1;" parent="1" vertex="1">
          <mxGeometry x="1521" y="725.5" width="40" height="40" as="geometry" />
        </mxCell>
        <mxCell id="-0kGIgU5v4uwBQH66-7V-16" value="State" style="ellipse;whiteSpace=wrap;html=1;" parent="1" vertex="1">
          <mxGeometry x="1430" y="733.5" width="40" height="40" as="geometry" />
        </mxCell>
        <mxCell id="-0kGIgU5v4uwBQH66-7V-17" value="ZipCode" style="ellipse;whiteSpace=wrap;html=1;" parent="1" vertex="1">
          <mxGeometry x="1564" y="710.5" width="60" height="40" as="geometry" />
        </mxCell>
        <mxCell id="-0kGIgU5v4uwBQH66-7V-22" value="Phone" style="ellipse;whiteSpace=wrap;html=1;" parent="1" vertex="1">
          <mxGeometry x="827" y="842.5" width="50" height="50" as="geometry" />
        </mxCell>
        <mxCell id="-0kGIgU5v4uwBQH66-7V-23" value="Fax" style="ellipse;whiteSpace=wrap;html=1;" parent="1" vertex="1">
          <mxGeometry x="885" y="854.75" width="30" height="30" as="geometry" />
        </mxCell>
        <mxCell id="-0kGIgU5v4uwBQH66-7V-24" value="" style="endArrow=none;html=1;rounded=0;exitX=0.5;exitY=0;exitDx=0;exitDy=0;entryX=0.424;entryY=1.016;entryDx=0;entryDy=0;entryPerimeter=0;" parent="1" source="-0kGIgU5v4uwBQH66-7V-22" target="wkBuQ8UOcpV6wldaHhzW-1" edge="1">
          <mxGeometry width="50" height="50" relative="1" as="geometry">
            <mxPoint x="910" y="960" as="sourcePoint" />
            <mxPoint x="850" y="790" as="targetPoint" />
          </mxGeometry>
        </mxCell>
        <mxCell id="-0kGIgU5v4uwBQH66-7V-25" value="" style="endArrow=none;html=1;rounded=0;exitX=0.317;exitY=0.036;exitDx=0;exitDy=0;entryX=0.563;entryY=1.013;entryDx=0;entryDy=0;entryPerimeter=0;exitPerimeter=0;" parent="1" source="-0kGIgU5v4uwBQH66-7V-23" target="wkBuQ8UOcpV6wldaHhzW-1" edge="1">
          <mxGeometry width="50" height="50" relative="1" as="geometry">
            <mxPoint x="920" y="970" as="sourcePoint" />
            <mxPoint x="920" y="790" as="targetPoint" />
          </mxGeometry>
        </mxCell>
        <mxCell id="-0kGIgU5v4uwBQH66-7V-26" value="Type" style="ellipse;whiteSpace=wrap;html=1;" parent="1" vertex="1">
          <mxGeometry x="923" y="848" width="40" height="40" as="geometry" />
        </mxCell>
        <mxCell id="-0kGIgU5v4uwBQH66-7V-28" value="" style="endArrow=none;html=1;rounded=0;exitX=0.206;exitY=0.074;exitDx=0;exitDy=0;entryX=0.75;entryY=1;entryDx=0;entryDy=0;exitPerimeter=0;" parent="1" source="-0kGIgU5v4uwBQH66-7V-26" target="wkBuQ8UOcpV6wldaHhzW-1" edge="1">
          <mxGeometry width="50" height="50" relative="1" as="geometry">
            <mxPoint x="934" y="854" as="sourcePoint" />
            <mxPoint x="900" y="790" as="targetPoint" />
          </mxGeometry>
        </mxCell>
        <mxCell id="-0kGIgU5v4uwBQH66-7V-30" value="&lt;u&gt;CustomerID&lt;/u&gt;" style="ellipse;whiteSpace=wrap;html=1;fontStyle=4" parent="1" vertex="1">
          <mxGeometry x="967" y="834.5" width="100" height="40" as="geometry" />
        </mxCell>
        <mxCell id="-0kGIgU5v4uwBQH66-7V-31" value="" style="endArrow=none;html=1;rounded=0;exitX=0.18;exitY=0.109;exitDx=0;exitDy=0;entryX=0.932;entryY=1.005;entryDx=0;entryDy=0;entryPerimeter=0;exitPerimeter=0;" parent="1" source="-0kGIgU5v4uwBQH66-7V-30" target="wkBuQ8UOcpV6wldaHhzW-1" edge="1">
          <mxGeometry width="50" height="50" relative="1" as="geometry">
            <mxPoint x="966" y="851" as="sourcePoint" />
            <mxPoint x="900" y="790" as="targetPoint" />
          </mxGeometry>
        </mxCell>
        <mxCell id="-0kGIgU5v4uwBQH66-7V-32" value="Name" style="ellipse;whiteSpace=wrap;html=1;" parent="1" vertex="1">
          <mxGeometry x="239" y="823" width="51" height="42" as="geometry" />
        </mxCell>
        <mxCell id="-0kGIgU5v4uwBQH66-7V-37" value="Gender" style="ellipse;whiteSpace=wrap;html=1;" parent="1" vertex="1">
          <mxGeometry x="329" y="871" width="50" height="33" as="geometry" />
        </mxCell>
        <mxCell id="-0kGIgU5v4uwBQH66-7V-47" value="Birthdate" style="ellipse;whiteSpace=wrap;html=1;" parent="1" vertex="1">
          <mxGeometry x="385" y="871" width="60" height="34" as="geometry" />
        </mxCell>
        <mxCell id="-0kGIgU5v4uwBQH66-7V-48" value="PetType" style="ellipse;whiteSpace=wrap;html=1;" parent="1" vertex="1">
          <mxGeometry x="447" y="856" width="60" height="27.5" as="geometry" />
        </mxCell>
        <mxCell id="-0kGIgU5v4uwBQH66-7V-49" value="&lt;u&gt;PetID&lt;/u&gt;" style="ellipse;whiteSpace=wrap;html=1;" parent="1" vertex="1">
          <mxGeometry x="497" y="826.5" width="50" height="35" as="geometry" />
        </mxCell>
        <mxCell id="-0kGIgU5v4uwBQH66-7V-52" value="Breed" style="ellipse;whiteSpace=wrap;html=1;" parent="1" vertex="1">
          <mxGeometry x="287" y="852.5" width="40" height="40" as="geometry" />
        </mxCell>
        <mxCell id="-0kGIgU5v4uwBQH66-7V-53" value="" style="endArrow=none;html=1;rounded=0;exitX=0.708;exitY=0.042;exitDx=0;exitDy=0;entryX=0.155;entryY=1.02;entryDx=0;entryDy=0;exitPerimeter=0;entryPerimeter=0;" parent="1" source="-0kGIgU5v4uwBQH66-7V-52" target="wkBuQ8UOcpV6wldaHhzW-6" edge="1">
          <mxGeometry width="50" height="50" relative="1" as="geometry">
            <mxPoint x="196" y="878" as="sourcePoint" />
            <mxPoint x="231" y="858" as="targetPoint" />
          </mxGeometry>
        </mxCell>
        <mxCell id="-0kGIgU5v4uwBQH66-7V-54" value="" style="endArrow=none;html=1;rounded=0;exitX=0.5;exitY=0;exitDx=0;exitDy=0;entryX=0.25;entryY=1;entryDx=0;entryDy=0;" parent="1" source="-0kGIgU5v4uwBQH66-7V-37" target="wkBuQ8UOcpV6wldaHhzW-6" edge="1">
          <mxGeometry width="50" height="50" relative="1" as="geometry">
            <mxPoint x="308" y="877" as="sourcePoint" />
            <mxPoint x="369" y="791" as="targetPoint" />
          </mxGeometry>
        </mxCell>
        <mxCell id="-0kGIgU5v4uwBQH66-7V-55" value="" style="endArrow=none;html=1;rounded=0;exitX=0.356;exitY=0.056;exitDx=0;exitDy=0;entryX=0.4;entryY=1.017;entryDx=0;entryDy=0;exitPerimeter=0;entryPerimeter=0;" parent="1" source="-0kGIgU5v4uwBQH66-7V-47" target="wkBuQ8UOcpV6wldaHhzW-6" edge="1">
          <mxGeometry width="50" height="50" relative="1" as="geometry">
            <mxPoint x="318" y="887" as="sourcePoint" />
            <mxPoint x="379" y="801" as="targetPoint" />
          </mxGeometry>
        </mxCell>
        <mxCell id="-0kGIgU5v4uwBQH66-7V-56" value="" style="endArrow=none;html=1;rounded=0;exitX=0.25;exitY=0.048;exitDx=0;exitDy=0;entryX=0.586;entryY=1.006;entryDx=0;entryDy=0;exitPerimeter=0;entryPerimeter=0;" parent="1" source="-0kGIgU5v4uwBQH66-7V-48" target="wkBuQ8UOcpV6wldaHhzW-6" edge="1">
          <mxGeometry width="50" height="50" relative="1" as="geometry">
            <mxPoint x="328" y="897" as="sourcePoint" />
            <mxPoint x="389" y="811" as="targetPoint" />
          </mxGeometry>
        </mxCell>
        <mxCell id="-0kGIgU5v4uwBQH66-7V-57" value="" style="endArrow=none;html=1;rounded=0;exitX=0;exitY=0;exitDx=0;exitDy=0;entryX=0.822;entryY=1.006;entryDx=0;entryDy=0;entryPerimeter=0;" parent="1" source="-0kGIgU5v4uwBQH66-7V-49" target="wkBuQ8UOcpV6wldaHhzW-6" edge="1">
          <mxGeometry width="50" height="50" relative="1" as="geometry">
            <mxPoint x="338" y="907" as="sourcePoint" />
            <mxPoint x="399" y="821" as="targetPoint" />
          </mxGeometry>
        </mxCell>
        <mxCell id="-0kGIgU5v4uwBQH66-7V-58" value="" style="endArrow=none;html=1;rounded=0;exitX=1;exitY=0;exitDx=0;exitDy=0;entryX=0.069;entryY=1.008;entryDx=0;entryDy=0;entryPerimeter=0;" parent="1" source="-0kGIgU5v4uwBQH66-7V-32" target="wkBuQ8UOcpV6wldaHhzW-6" edge="1">
          <mxGeometry width="50" height="50" relative="1" as="geometry">
            <mxPoint x="348" y="917" as="sourcePoint" />
            <mxPoint x="409" y="831" as="targetPoint" />
          </mxGeometry>
        </mxCell>
        <mxCell id="-0kGIgU5v4uwBQH66-7V-59" value="ServiceType" style="ellipse;whiteSpace=wrap;html=1;" parent="1" vertex="1">
          <mxGeometry x="1230" y="205" width="80" height="50" as="geometry" />
        </mxCell>
        <mxCell id="-0kGIgU5v4uwBQH66-7V-60" value="&lt;u&gt;ServiceID&lt;/u&gt;" style="ellipse;whiteSpace=wrap;html=1;" parent="1" vertex="1">
          <mxGeometry x="1310" y="202.5" width="80" height="50" as="geometry" />
        </mxCell>
        <mxCell id="-0kGIgU5v4uwBQH66-7V-61" value="Price" style="ellipse;whiteSpace=wrap;html=1;" parent="1" vertex="1">
          <mxGeometry x="1070" y="245" width="40" height="40" as="geometry" />
        </mxCell>
        <mxCell id="-0kGIgU5v4uwBQH66-7V-62" value="" style="endArrow=none;html=1;rounded=0;entryX=0.5;entryY=1;entryDx=0;entryDy=0;exitX=0.5;exitY=0;exitDx=0;exitDy=0;" parent="1" source="rdd54FIDhYAE33KvgznH-16" target="-0kGIgU5v4uwBQH66-7V-61" edge="1">
          <mxGeometry width="50" height="50" relative="1" as="geometry">
            <mxPoint x="1020" y="470" as="sourcePoint" />
            <mxPoint x="1070" y="420" as="targetPoint" />
          </mxGeometry>
        </mxCell>
        <mxCell id="-0kGIgU5v4uwBQH66-7V-63" value="&lt;u&gt;EmployeeID&lt;/u&gt;" style="ellipse;whiteSpace=wrap;html=1;" parent="1" vertex="1">
          <mxGeometry x="255" y="210" width="90" height="45" as="geometry" />
        </mxCell>
        <mxCell id="-0kGIgU5v4uwBQH66-7V-64" value="Name" style="ellipse;whiteSpace=wrap;html=1;" parent="1" vertex="1">
          <mxGeometry x="358" y="190" width="60" height="44" as="geometry" />
        </mxCell>
        <mxCell id="-0kGIgU5v4uwBQH66-7V-65" value="FirstName" style="ellipse;whiteSpace=wrap;html=1;" parent="1" vertex="1">
          <mxGeometry x="277.5" y="110" width="65" height="40" as="geometry" />
        </mxCell>
        <mxCell id="-0kGIgU5v4uwBQH66-7V-66" value="LastName" style="ellipse;whiteSpace=wrap;html=1;" parent="1" vertex="1">
          <mxGeometry x="342.5" y="90" width="67.5" height="40" as="geometry" />
        </mxCell>
        <mxCell id="-0kGIgU5v4uwBQH66-7V-67" value="" style="endArrow=none;html=1;rounded=0;entryX=1;entryY=1;entryDx=0;entryDy=0;exitX=0.354;exitY=0.032;exitDx=0;exitDy=0;exitPerimeter=0;" parent="1" source="-0kGIgU5v4uwBQH66-7V-64" target="-0kGIgU5v4uwBQH66-7V-65" edge="1">
          <mxGeometry width="50" height="50" relative="1" as="geometry">
            <mxPoint x="210" y="210" as="sourcePoint" />
            <mxPoint x="260" y="160" as="targetPoint" />
          </mxGeometry>
        </mxCell>
        <mxCell id="-0kGIgU5v4uwBQH66-7V-68" value="" style="endArrow=none;html=1;rounded=0;entryX=0.5;entryY=1;entryDx=0;entryDy=0;exitX=0.5;exitY=0;exitDx=0;exitDy=0;" parent="1" source="-0kGIgU5v4uwBQH66-7V-64" target="-0kGIgU5v4uwBQH66-7V-66" edge="1">
          <mxGeometry width="50" height="50" relative="1" as="geometry">
            <mxPoint x="375" y="201" as="sourcePoint" />
            <mxPoint x="343" y="154" as="targetPoint" />
          </mxGeometry>
        </mxCell>
        <mxCell id="-0kGIgU5v4uwBQH66-7V-72" value="Education" style="ellipse;whiteSpace=wrap;html=1;" parent="1" vertex="1">
          <mxGeometry x="436" y="188" width="74" height="44.5" as="geometry" />
        </mxCell>
        <mxCell id="-0kGIgU5v4uwBQH66-7V-83" value="Phone" style="ellipse;whiteSpace=wrap;html=1;" parent="1" vertex="1">
          <mxGeometry x="205" y="260" width="50" height="30" as="geometry" />
        </mxCell>
        <mxCell id="-0kGIgU5v4uwBQH66-7V-85" value="" style="endArrow=none;html=1;rounded=0;entryX=0.961;entryY=0.713;entryDx=0;entryDy=0;exitX=0.109;exitY=-0.003;exitDx=0;exitDy=0;exitPerimeter=0;entryPerimeter=0;" parent="1" source="wkBuQ8UOcpV6wldaHhzW-7" target="-0kGIgU5v4uwBQH66-7V-83" edge="1">
          <mxGeometry width="50" height="50" relative="1" as="geometry">
            <mxPoint x="230" y="261" as="sourcePoint" />
            <mxPoint x="213" y="198" as="targetPoint" />
          </mxGeometry>
        </mxCell>
        <mxCell id="-0kGIgU5v4uwBQH66-7V-87" value="" style="endArrow=none;html=1;rounded=0;entryX=0.756;entryY=0.932;entryDx=0;entryDy=0;exitX=0.359;exitY=-0.014;exitDx=0;exitDy=0;exitPerimeter=0;entryPerimeter=0;" parent="1" source="wkBuQ8UOcpV6wldaHhzW-7" target="-0kGIgU5v4uwBQH66-7V-63" edge="1">
          <mxGeometry width="50" height="50" relative="1" as="geometry">
            <mxPoint x="380" y="350" as="sourcePoint" />
            <mxPoint x="261" y="290" as="targetPoint" />
          </mxGeometry>
        </mxCell>
        <mxCell id="-0kGIgU5v4uwBQH66-7V-88" value="" style="endArrow=none;html=1;rounded=0;entryX=0.5;entryY=1;entryDx=0;entryDy=0;exitX=0.5;exitY=0;exitDx=0;exitDy=0;" parent="1" source="wkBuQ8UOcpV6wldaHhzW-7" target="-0kGIgU5v4uwBQH66-7V-64" edge="1">
          <mxGeometry width="50" height="50" relative="1" as="geometry">
            <mxPoint x="393" y="349" as="sourcePoint" />
            <mxPoint x="305" y="270" as="targetPoint" />
          </mxGeometry>
        </mxCell>
        <mxCell id="-0kGIgU5v4uwBQH66-7V-89" value="" style="endArrow=none;html=1;rounded=0;entryX=0.254;entryY=0.926;entryDx=0;entryDy=0;exitX=0.674;exitY=0;exitDx=0;exitDy=0;entryPerimeter=0;exitPerimeter=0;" parent="1" source="wkBuQ8UOcpV6wldaHhzW-7" target="-0kGIgU5v4uwBQH66-7V-72" edge="1">
          <mxGeometry width="50" height="50" relative="1" as="geometry">
            <mxPoint x="410" y="350" as="sourcePoint" />
            <mxPoint x="442.04999999999995" y="231.59500000000003" as="targetPoint" />
          </mxGeometry>
        </mxCell>
        <mxCell id="-0kGIgU5v4uwBQH66-7V-90" value="" style="endArrow=none;html=1;rounded=0;entryX=0;entryY=1;entryDx=0;entryDy=0;exitX=0.855;exitY=0;exitDx=0;exitDy=0;exitPerimeter=0;" parent="1" source="wkBuQ8UOcpV6wldaHhzW-7" target="Rl5Xt2jMIMW4c3KPyldP-1" edge="1">
          <mxGeometry width="50" height="50" relative="1" as="geometry">
            <mxPoint x="431" y="350" as="sourcePoint" />
            <mxPoint x="460" y="244" as="targetPoint" />
          </mxGeometry>
        </mxCell>
        <mxCell id="-0kGIgU5v4uwBQH66-7V-130" style="edgeStyle=orthogonalEdgeStyle;rounded=0;orthogonalLoop=1;jettySize=auto;html=1;exitX=1;exitY=0.5;exitDx=0;exitDy=0;entryX=0;entryY=0.5;entryDx=0;entryDy=0;endArrow=none;endFill=0;" parent="1" source="-0kGIgU5v4uwBQH66-7V-91" target="rdd54FIDhYAE33KvgznH-5" edge="1">
          <mxGeometry relative="1" as="geometry" />
        </mxCell>
        <mxCell id="-0kGIgU5v4uwBQH66-7V-91" value="TreatmentDate" style="ellipse;whiteSpace=wrap;html=1;" parent="1" vertex="1">
          <mxGeometry x="160" y="570" width="95" height="40" as="geometry" />
        </mxCell>
        <mxCell id="-0kGIgU5v4uwBQH66-7V-97" value="&lt;u&gt;ClinicID&lt;/u&gt;" style="ellipse;whiteSpace=wrap;html=1;" parent="1" vertex="1">
          <mxGeometry x="734" y="188" width="80" height="50" as="geometry" />
        </mxCell>
        <mxCell id="-0kGIgU5v4uwBQH66-7V-98" value="Name" style="ellipse;whiteSpace=wrap;html=1;" parent="1" vertex="1">
          <mxGeometry x="820" y="178.5" width="52" height="51.5" as="geometry" />
        </mxCell>
        <mxCell id="-0kGIgU5v4uwBQH66-7V-109" value="Phone" style="ellipse;whiteSpace=wrap;html=1;" parent="1" vertex="1">
          <mxGeometry x="880" y="175" width="70" height="40" as="geometry" />
        </mxCell>
        <mxCell id="-0kGIgU5v4uwBQH66-7V-110" value="" style="endArrow=none;html=1;rounded=0;entryX=0.727;entryY=0.95;entryDx=0;entryDy=0;exitX=0.25;exitY=0;exitDx=0;exitDy=0;entryPerimeter=0;" parent="1" source="wkBuQ8UOcpV6wldaHhzW-5" target="-0kGIgU5v4uwBQH66-7V-97" edge="1">
          <mxGeometry width="50" height="50" relative="1" as="geometry">
            <mxPoint x="920" y="201" as="sourcePoint" />
            <mxPoint x="894" y="124" as="targetPoint" />
          </mxGeometry>
        </mxCell>
        <mxCell id="-0kGIgU5v4uwBQH66-7V-111" value="" style="endArrow=none;html=1;rounded=0;entryX=0.5;entryY=1;entryDx=0;entryDy=0;exitX=0.5;exitY=0;exitDx=0;exitDy=0;" parent="1" source="wkBuQ8UOcpV6wldaHhzW-5" target="-0kGIgU5v4uwBQH66-7V-98" edge="1">
          <mxGeometry width="50" height="50" relative="1" as="geometry">
            <mxPoint x="840" y="350" as="sourcePoint" />
            <mxPoint x="788" y="260" as="targetPoint" />
          </mxGeometry>
        </mxCell>
        <mxCell id="-0kGIgU5v4uwBQH66-7V-113" value="" style="endArrow=none;html=1;rounded=0;entryX=0.39;entryY=1.004;entryDx=0;entryDy=0;exitX=0.846;exitY=-0.014;exitDx=0;exitDy=0;exitPerimeter=0;entryPerimeter=0;" parent="1" source="wkBuQ8UOcpV6wldaHhzW-5" target="-0kGIgU5v4uwBQH66-7V-109" edge="1">
          <mxGeometry width="50" height="50" relative="1" as="geometry">
            <mxPoint x="890" y="351" as="sourcePoint" />
            <mxPoint x="930" y="240" as="targetPoint" />
          </mxGeometry>
        </mxCell>
        <mxCell id="-0kGIgU5v4uwBQH66-7V-114" value="" style="endArrow=none;html=1;rounded=0;entryX=0.5;entryY=1;entryDx=0;entryDy=0;exitX=0.356;exitY=0.008;exitDx=0;exitDy=0;exitPerimeter=0;" parent="1" source="rdd54FIDhYAE33KvgznH-1" target="-0kGIgU5v4uwBQH66-7V-59" edge="1">
          <mxGeometry width="50" height="50" relative="1" as="geometry">
            <mxPoint x="951" y="206" as="sourcePoint" />
            <mxPoint x="995" y="129" as="targetPoint" />
          </mxGeometry>
        </mxCell>
        <mxCell id="-0kGIgU5v4uwBQH66-7V-115" value="" style="endArrow=none;html=1;rounded=0;entryX=0.5;entryY=1;entryDx=0;entryDy=0;exitX=0.666;exitY=-0.015;exitDx=0;exitDy=0;exitPerimeter=0;" parent="1" source="rdd54FIDhYAE33KvgznH-1" target="-0kGIgU5v4uwBQH66-7V-60" edge="1">
          <mxGeometry width="50" height="50" relative="1" as="geometry">
            <mxPoint x="1313" y="350" as="sourcePoint" />
            <mxPoint x="1280" y="265" as="targetPoint" />
          </mxGeometry>
        </mxCell>
        <mxCell id="-0kGIgU5v4uwBQH66-7V-126" value="N" style="endArrow=none;html=1;rounded=0;exitX=0.5;exitY=1;exitDx=0;exitDy=0;entryX=0.5;entryY=0;entryDx=0;entryDy=0;" parent="1" source="wkBuQ8UOcpV6wldaHhzW-7" target="rdd54FIDhYAE33KvgznH-5" edge="1">
          <mxGeometry x="0.6667" relative="1" as="geometry">
            <mxPoint x="380" y="480" as="sourcePoint" />
            <mxPoint x="540" y="480" as="targetPoint" />
            <mxPoint as="offset" />
          </mxGeometry>
        </mxCell>
        <mxCell id="-0kGIgU5v4uwBQH66-7V-127" value="M" style="endArrow=none;html=1;rounded=0;exitX=0.5;exitY=1;exitDx=0;exitDy=0;entryX=0.5;entryY=0;entryDx=0;entryDy=0;" parent="1" source="rdd54FIDhYAE33KvgznH-5" target="wkBuQ8UOcpV6wldaHhzW-6" edge="1">
          <mxGeometry x="-0.6667" relative="1" as="geometry">
            <mxPoint x="410" y="410" as="sourcePoint" />
            <mxPoint x="410" y="530" as="targetPoint" />
            <mxPoint as="offset" />
          </mxGeometry>
        </mxCell>
        <mxCell id="-0kGIgU5v4uwBQH66-7V-129" value="1" style="endArrow=none;html=1;rounded=0;entryX=0.5;entryY=1;entryDx=0;entryDy=0;exitX=0.5;exitY=0;exitDx=0;exitDy=0;" parent="1" source="rdd54FIDhYAE33KvgznH-10" target="wkBuQ8UOcpV6wldaHhzW-5" edge="1">
          <mxGeometry x="-0.8947" width="50" height="50" relative="1" as="geometry">
            <mxPoint x="888" y="437" as="sourcePoint" />
            <mxPoint x="870" y="538" as="targetPoint" />
            <Array as="points" />
            <mxPoint as="offset" />
          </mxGeometry>
        </mxCell>
        <mxCell id="Rl5Xt2jMIMW4c3KPyldP-1" value="HireDate" style="ellipse;whiteSpace=wrap;html=1;" parent="1" vertex="1">
          <mxGeometry x="510" y="227.5" width="60" height="35" as="geometry" />
        </mxCell>
        <mxCell id="temIpWPYk4siJYd5qzks-2" style="edgeStyle=orthogonalEdgeStyle;rounded=0;orthogonalLoop=1;jettySize=auto;html=1;exitX=1;exitY=0.5;exitDx=0;exitDy=0;entryX=0;entryY=0.5;entryDx=0;entryDy=0;endArrow=none;endFill=0;" parent="1" source="temIpWPYk4siJYd5qzks-1" target="rdd54FIDhYAE33KvgznH-5" edge="1">
          <mxGeometry relative="1" as="geometry" />
        </mxCell>
        <mxCell id="temIpWPYk4siJYd5qzks-1" value="&lt;u&gt;TreatmentID&lt;/u&gt;" style="ellipse;whiteSpace=wrap;html=1;" parent="1" vertex="1">
          <mxGeometry x="160" y="510" width="95" height="40" as="geometry" />
        </mxCell>
        <mxCell id="kqQEhxGM9B7Q-NJnzDqN-1" value="Address" style="rounded=0;whiteSpace=wrap;html=1;" vertex="1" parent="1">
          <mxGeometry x="1411" y="574.5" width="120" height="60" as="geometry" />
        </mxCell>
        <mxCell id="kqQEhxGM9B7Q-NJnzDqN-2" value="&lt;u&gt;AddressID&lt;/u&gt;" style="ellipse;whiteSpace=wrap;html=1;" vertex="1" parent="1">
          <mxGeometry x="1350" y="731" width="74" height="42.5" as="geometry" />
        </mxCell>
        <mxCell id="kqQEhxGM9B7Q-NJnzDqN-3" value="" style="endArrow=none;html=1;rounded=0;entryX=0.189;entryY=1.014;entryDx=0;entryDy=0;entryPerimeter=0;exitX=0.575;exitY=-0.018;exitDx=0;exitDy=0;exitPerimeter=0;" edge="1" parent="1" source="kqQEhxGM9B7Q-NJnzDqN-2" target="kqQEhxGM9B7Q-NJnzDqN-1">
          <mxGeometry width="50" height="50" relative="1" as="geometry">
            <mxPoint x="1371" y="741" as="sourcePoint" />
            <mxPoint x="1421" y="691" as="targetPoint" />
          </mxGeometry>
        </mxCell>
        <mxCell id="kqQEhxGM9B7Q-NJnzDqN-4" value="" style="endArrow=none;html=1;rounded=0;entryX=0.351;entryY=1.005;entryDx=0;entryDy=0;entryPerimeter=0;exitX=0.5;exitY=0;exitDx=0;exitDy=0;" edge="1" parent="1" source="-0kGIgU5v4uwBQH66-7V-16" target="kqQEhxGM9B7Q-NJnzDqN-1">
          <mxGeometry width="50" height="50" relative="1" as="geometry">
            <mxPoint x="1401" y="765" as="sourcePoint" />
            <mxPoint x="1442" y="670" as="targetPoint" />
          </mxGeometry>
        </mxCell>
        <mxCell id="kqQEhxGM9B7Q-NJnzDqN-5" value="" style="endArrow=none;html=1;rounded=0;entryX=0.589;entryY=1.005;entryDx=0;entryDy=0;entryPerimeter=0;exitX=0.5;exitY=0;exitDx=0;exitDy=0;" edge="1" parent="1" source="-0kGIgU5v4uwBQH66-7V-13" target="kqQEhxGM9B7Q-NJnzDqN-1">
          <mxGeometry width="50" height="50" relative="1" as="geometry">
            <mxPoint x="1403" y="776" as="sourcePoint" />
            <mxPoint x="1444" y="681" as="targetPoint" />
          </mxGeometry>
        </mxCell>
        <mxCell id="kqQEhxGM9B7Q-NJnzDqN-6" value="" style="endArrow=none;html=1;rounded=0;entryX=0.75;entryY=1;entryDx=0;entryDy=0;exitX=0.318;exitY=0.061;exitDx=0;exitDy=0;exitPerimeter=0;" edge="1" parent="1" source="-0kGIgU5v4uwBQH66-7V-15" target="kqQEhxGM9B7Q-NJnzDqN-1">
          <mxGeometry width="50" height="50" relative="1" as="geometry">
            <mxPoint x="1413" y="786" as="sourcePoint" />
            <mxPoint x="1454" y="691" as="targetPoint" />
          </mxGeometry>
        </mxCell>
        <mxCell id="kqQEhxGM9B7Q-NJnzDqN-7" value="" style="endArrow=none;html=1;rounded=0;entryX=0.904;entryY=1.014;entryDx=0;entryDy=0;entryPerimeter=0;exitX=0.352;exitY=0.007;exitDx=0;exitDy=0;exitPerimeter=0;" edge="1" parent="1" source="-0kGIgU5v4uwBQH66-7V-17" target="kqQEhxGM9B7Q-NJnzDqN-1">
          <mxGeometry width="50" height="50" relative="1" as="geometry">
            <mxPoint x="1423" y="796" as="sourcePoint" />
            <mxPoint x="1464" y="701" as="targetPoint" />
          </mxGeometry>
        </mxCell>
        <mxCell id="kqQEhxGM9B7Q-NJnzDqN-13" value="1" style="edgeStyle=orthogonalEdgeStyle;rounded=0;orthogonalLoop=1;jettySize=auto;html=1;exitX=1;exitY=0.5;exitDx=0;exitDy=0;entryX=0;entryY=0.5;entryDx=0;entryDy=0;endArrow=none;endFill=0;" edge="1" parent="1" source="kqQEhxGM9B7Q-NJnzDqN-9" target="kqQEhxGM9B7Q-NJnzDqN-1">
          <mxGeometry x="-0.8354" relative="1" as="geometry">
            <mxPoint as="offset" />
          </mxGeometry>
        </mxCell>
        <mxCell id="kqQEhxGM9B7Q-NJnzDqN-9" value="Location" style="shape=rhombus;perimeter=rhombusPerimeter;whiteSpace=wrap;html=1;align=center;" vertex="1" parent="1">
          <mxGeometry x="1170" y="565" width="120" height="80" as="geometry" />
        </mxCell>
        <mxCell id="kqQEhxGM9B7Q-NJnzDqN-20" value="1" style="edgeStyle=orthogonalEdgeStyle;rounded=0;orthogonalLoop=1;jettySize=auto;html=1;exitX=1;exitY=0.5;exitDx=0;exitDy=0;entryX=0;entryY=0.75;entryDx=0;entryDy=0;endArrow=none;endFill=0;" edge="1" parent="1" source="kqQEhxGM9B7Q-NJnzDqN-18" target="kqQEhxGM9B7Q-NJnzDqN-1">
          <mxGeometry x="-0.8977" relative="1" as="geometry">
            <mxPoint as="offset" />
          </mxGeometry>
        </mxCell>
        <mxCell id="kqQEhxGM9B7Q-NJnzDqN-18" value="Location" style="shape=rhombus;perimeter=rhombusPerimeter;whiteSpace=wrap;html=1;align=center;" vertex="1" parent="1">
          <mxGeometry x="1170" y="654" width="120" height="80" as="geometry" />
        </mxCell>
        <mxCell id="kqQEhxGM9B7Q-NJnzDqN-21" value="1" style="edgeStyle=orthogonalEdgeStyle;rounded=0;orthogonalLoop=1;jettySize=auto;html=1;entryX=0;entryY=0.25;entryDx=0;entryDy=0;endArrow=none;endFill=0;" edge="1" parent="1" source="kqQEhxGM9B7Q-NJnzDqN-19" target="kqQEhxGM9B7Q-NJnzDqN-1">
          <mxGeometry x="-0.8977" relative="1" as="geometry">
            <mxPoint as="offset" />
          </mxGeometry>
        </mxCell>
        <mxCell id="kqQEhxGM9B7Q-NJnzDqN-19" value="Location" style="shape=rhombus;perimeter=rhombusPerimeter;whiteSpace=wrap;html=1;align=center;" vertex="1" parent="1">
          <mxGeometry x="1170" y="475" width="120" height="80" as="geometry" />
        </mxCell>
        <mxCell id="kqQEhxGM9B7Q-NJnzDqN-26" value="N" style="endArrow=none;html=1;rounded=0;exitX=1;exitY=1;exitDx=0;exitDy=0;entryX=0;entryY=0.5;entryDx=0;entryDy=0;" edge="1" parent="1" source="wkBuQ8UOcpV6wldaHhzW-7" target="kqQEhxGM9B7Q-NJnzDqN-9">
          <mxGeometry x="0.9744" width="50" height="50" relative="1" as="geometry">
            <mxPoint x="640" y="490" as="sourcePoint" />
            <mxPoint x="690" y="440" as="targetPoint" />
            <Array as="points">
              <mxPoint x="560" y="480" />
              <mxPoint x="800" y="480" />
              <mxPoint x="960" y="605" />
            </Array>
            <mxPoint as="offset" />
          </mxGeometry>
        </mxCell>
        <mxCell id="kqQEhxGM9B7Q-NJnzDqN-28" value="N" style="endArrow=none;html=1;rounded=0;exitX=1;exitY=1;exitDx=0;exitDy=0;entryX=0;entryY=0.5;entryDx=0;entryDy=0;" edge="1" parent="1" source="wkBuQ8UOcpV6wldaHhzW-5" target="kqQEhxGM9B7Q-NJnzDqN-19">
          <mxGeometry x="0.9397" width="50" height="50" relative="1" as="geometry">
            <mxPoint x="470" y="410" as="sourcePoint" />
            <mxPoint x="1180" y="615" as="targetPoint" />
            <Array as="points">
              <mxPoint x="960" y="515" />
            </Array>
            <mxPoint as="offset" />
          </mxGeometry>
        </mxCell>
        <mxCell id="kqQEhxGM9B7Q-NJnzDqN-29" value="N" style="endArrow=none;html=1;rounded=0;exitX=1;exitY=0.5;exitDx=0;exitDy=0;entryX=0;entryY=0.5;entryDx=0;entryDy=0;" edge="1" parent="1" source="wkBuQ8UOcpV6wldaHhzW-1" target="kqQEhxGM9B7Q-NJnzDqN-18">
          <mxGeometry x="0.9283" width="50" height="50" relative="1" as="geometry">
            <mxPoint x="470" y="410" as="sourcePoint" />
            <mxPoint x="1180" y="615" as="targetPoint" />
            <Array as="points">
              <mxPoint x="960" y="694" />
            </Array>
            <mxPoint as="offset" />
          </mxGeometry>
        </mxCell>
      </root>
    </mxGraphModel>
  </diagram>
</mxfile>
